<?xml version="1.0" encoding="UTF-8"?>
<svg width="512" height="512" viewBox="0 0 512 512" xmlns="http://www.w3.org/2000/svg" role="img" aria-label="Layker icon primary">
  <defs>
    <clipPath id="roundClip">
      <circle cx="256" cy="256" r="240"/>
    </clipPath>
  </defs>
  <rect width="100%" height="100%" fill="#DCEAF5"/>
  <g clip-path="url(#roundClip)">
    <rect x="16" y="16" width="480" height="480" rx="240" fill="#FFFFFF"/>
    <!-- Waves / layers -->
    <path d="M0 360 L512 300 L512 512 L0 512 Z" fill="#1FB9A8" opacity="0.25"/>
    <path d="M0 400 L512 360 L512 512 L0 512 Z" fill="#1FB9A8" opacity="0.35"/>
    <path d="M0 440 L512 420 L512 512 L0 512 Z" fill="#155EAD" opacity="0.55"/>
    <!-- Simple fish (body + tail + eye) -->
    <g transform="translate(110,160) scale(1.0)">
      <!-- Body -->
      <ellipse cx="180" cy="90" rx="120" ry="70" fill="#155EAD"/>
      <!-- Tail -->
      <polygon points="280,90 360,50 360,130" fill="#155EAD"/>
      <!-- Highlight -->
      <ellipse cx="150" cy="75" rx="30" ry="18" fill="#FFFFFF" opacity="0.20"/>
      <!-- Eye -->
      <circle cx="220" cy="85" r="8" fill="#FFFFFF"/>
      <circle cx="220" cy="85" r="4" fill="#1B2A34"/>
    </g>
  </g>
  <!-- Outer ring -->
  <circle cx="256" cy="256" r="240" fill="none" stroke="#155EAD" stroke-width="18"/>
</svg>
