<svg xmlns="http://www.w3.org/2000/svg" width="1300" height="380" viewBox="0 0 1300 380">
<rect width="1300" height="380" fill="none"/>
<g transform="translate(10,10) scale(0.6)">
<rect width="512" height="512" fill="none"/>
<path d="M 100 165 L 30 130 L 30 200 Z" fill="#12BBD1" opacity="0.95"/>
<path d="M 210 95 L 250 65 L 240 100 Z" fill="#12BBD1" opacity="0.95"/>
<ellipse cx="220" cy="165" rx="120" ry="70" fill="#12BBD1"/>
<path d="M 245 165 c -18,-16 -18,16 0,0" stroke="#0F2A3A" stroke-width="6" fill="none" stroke-linecap="round"/>
<circle cx="275" cy="160" r="10" fill="#0F2A3A"/>
<path d="M 120.0 330 L 240 358 L 360.0 330 " fill="none" stroke="#1F6B9A" stroke-width="28" stroke-linecap="round" stroke-linejoin="round"/>
<path d="M 120.0 382 L 240 410 L 360.0 382 " fill="none" stroke="#74D6C4" stroke-width="28" stroke-linecap="round" stroke-linejoin="round"/>
<path d="M 120.0 434 L 240 462 L 360.0 434 " fill="none" stroke="#0F2A3A" stroke-width="28" stroke-linecap="round" stroke-linejoin="round"/>
</g>
<text x="360" y="160" font-family="Inter,Segoe UI,Arial,sans-serif" font-size="140" font-weight="800" fill="#0F2A3A">Lay</text>
<text x="660" y="160" font-family="Inter,Segoe UI,Arial,sans-serif" font-size="140" font-weight="800" fill="#12BBD1">ker</text>
<text x="360" y="230" font-family="Inter,Segoe UI,Arial,sans-serif" font-size="40" font-weight="500" fill="#6B7280">Lakehouse‑Aligned YAML Kit for Engineering Rules</text>
</svg>